<svg width="25" height="28" viewBox="0 0 25 28" fill="none" xmlns="http://www.w3.org/2000/svg">
<path fill-rule="evenodd" clip-rule="evenodd" d="M3.65625 23H6.65625V11H3.65625V23Z" fill="#0864EE"/>
<path fill-rule="evenodd" clip-rule="evenodd" d="M8.65625 23H11.6562V11H8.65625V23Z" fill="#0864EE"/>
<path fill-rule="evenodd" clip-rule="evenodd" d="M13.6562 23H16.6562V11H13.6562V23Z" fill="#0864EE"/>
<path fill-rule="evenodd" clip-rule="evenodd" d="M18.6562 23H21.6562V11H18.6562V23Z" fill="#0864EE"/>
<path fill-rule="evenodd" clip-rule="evenodd" d="M1.65625 25H23.6562V22H1.65625V25Z" fill="#5697FA"/>
<path fill-rule="evenodd" clip-rule="evenodd" d="M13.3021 0.546551L24.1974 9.76561C24.4925 10.0153 24.5293 10.457 24.2796 10.7521C24.1466 10.9093 23.9511 11 23.7452 11H1.56719C1.18059 11 0.867188 10.6866 0.867188 10.3C0.867188 10.0941 0.957842 9.89861 1.11503 9.76561L12.0103 0.546551C12.3831 0.231065 12.9293 0.231065 13.3021 0.546551Z" fill="#5697FA"/>
<path fill-rule="evenodd" clip-rule="evenodd" d="M7.86591 7.99998H17.476L12.6562 3.93626" fill="#0864EE"/>
</svg>
