<svg width="49" height="49" viewBox="0 0 49 49" fill="none" xmlns="http://www.w3.org/2000/svg">
<path d="M42.5 20.875L40.731 7.611C40.599 6.617 39.751 5.875 38.749 5.875H10.251C9.249 5.875 8.401 6.617 8.269 7.611L6.5 20.875" stroke="#3483FA" stroke-miterlimit="10"/>
<path d="M14.5 37.875V43.875H5.5V37.875" stroke="#3483FA" stroke-miterlimit="10" stroke-linecap="square"/>
<path d="M43.5 37.875V43.875H34.5V37.875" stroke="#3483FA" stroke-miterlimit="10" stroke-linecap="square"/>
<path d="M46.5 37.875H2.5V27.278C2.5 26.37 2.809 25.488 3.377 24.779L6.5 20.875H42.5L45.623 24.779C46.191 25.489 46.5 26.37 46.5 27.278V37.875Z" stroke="#3483FA" stroke-miterlimit="10" stroke-linecap="square"/>
<path d="M38.5 32.875C40.1569 32.875 41.5 31.5319 41.5 29.875C41.5 28.2181 40.1569 26.875 38.5 26.875C36.8431 26.875 35.5 28.2181 35.5 29.875C35.5 31.5319 36.8431 32.875 38.5 32.875Z" stroke="#3483FA" stroke-miterlimit="10" stroke-linecap="square"/>
<path d="M10.5 32.875C12.1569 32.875 13.5 31.5319 13.5 29.875C13.5 28.2181 12.1569 26.875 10.5 26.875C8.84315 26.875 7.5 28.2181 7.5 29.875C7.5 31.5319 8.84315 32.875 10.5 32.875Z" stroke="#3483FA" stroke-miterlimit="10" stroke-linecap="square"/>
<path d="M21.5 29.875H27.5" stroke="#3483FA" stroke-miterlimit="10" stroke-linecap="square"/>
</svg>
