<svg width="49" height="49" viewBox="0 0 49 49" fill="none" xmlns="http://www.w3.org/2000/svg">
<path d="M7.5 6.875H12.5" stroke="#3483FA" stroke-miterlimit="10" stroke-linecap="square"/>
<path d="M5.5 43.875H43.5C45.157 43.875 46.5 42.532 46.5 40.875V14.875C46.5 13.218 45.157 11.875 43.5 11.875H35.5L31.501 5.875H21.5L17.5 11.875H5.5C3.843 11.875 2.5 13.218 2.5 14.875V40.875C2.5 42.532 3.843 43.875 5.5 43.875Z" stroke="#3483FA" stroke-miterlimit="10" stroke-linecap="square"/>
<path d="M26.5 37.875C32.0228 37.875 36.5 33.3978 36.5 27.875C36.5 22.3522 32.0228 17.875 26.5 17.875C20.9772 17.875 16.5 22.3522 16.5 27.875C16.5 33.3978 20.9772 37.875 26.5 37.875Z" stroke="#3483FA" stroke-miterlimit="10" stroke-linecap="square"/>
<path d="M10.5 20.875C11.0523 20.875 11.5 20.4273 11.5 19.875C11.5 19.3227 11.0523 18.875 10.5 18.875C9.94772 18.875 9.5 19.3227 9.5 19.875C9.5 20.4273 9.94772 20.875 10.5 20.875Z" stroke="#3483FA" stroke-miterlimit="10" stroke-linecap="square"/>
<path d="M10.5 20.875C11.0523 20.875 11.5 20.4273 11.5 19.875C11.5 19.3227 11.0523 18.875 10.5 18.875C9.94772 18.875 9.5 19.3227 9.5 19.875C9.5 20.4273 9.94772 20.875 10.5 20.875Z" fill="#3483FA"/>
</svg>
