<svg width="49" height="49" viewBox="0 0 49 49" fill="none" xmlns="http://www.w3.org/2000/svg">
<path d="M24.5 46.875C35.5457 46.875 44.5 37.9207 44.5 26.875C44.5 15.8293 35.5457 6.875 24.5 6.875C13.4543 6.875 4.5 15.8293 4.5 26.875C4.5 37.9207 13.4543 46.875 24.5 46.875Z" stroke="#3483FA" stroke-miterlimit="10" stroke-linecap="square"/>
<path d="M24.5 33.875L27.5 29.875H21.5L24.5 33.875Z" stroke="#3483FA" stroke-miterlimit="10" stroke-linecap="square"/>
<path d="M24.5 33.875L27.5 29.875H21.5L24.5 33.875Z" fill="#3483FA"/>
<path d="M24.5 33.875V37.875" stroke="#3483FA" stroke-miterlimit="10" stroke-linecap="square"/>
<path d="M20.5 37.875H28.5" stroke="#3483FA" stroke-miterlimit="10" stroke-linecap="square"/>
<path d="M17.5 24.875C18.6046 24.875 19.5 23.9796 19.5 22.875C19.5 21.7704 18.6046 20.875 17.5 20.875C16.3954 20.875 15.5 21.7704 15.5 22.875C15.5 23.9796 16.3954 24.875 17.5 24.875Z" fill="#3483FA"/>
<path d="M31.5 24.875C32.6046 24.875 33.5 23.9796 33.5 22.875C33.5 21.7704 32.6046 20.875 31.5 20.875C30.3954 20.875 29.5 21.7704 29.5 22.875C29.5 23.9796 30.3954 24.875 31.5 24.875Z" fill="#3483FA"/>
<path d="M14.442 9.585C14.471 9.346 14.5 9.122 14.5 8.875C14.5 5.561 11.814 2.875 8.5 2.875C5.186 2.875 2.5 5.561 2.5 8.875C2.5 12.189 5.186 14.875 8.5 14.875" stroke="#3483FA" stroke-miterlimit="10"/>
<path d="M34.558 9.585C34.529 9.346 34.5 9.122 34.5 8.875C34.5 5.561 37.186 2.875 40.5 2.875C43.814 2.875 46.5 5.561 46.5 8.875C46.5 12.189 43.814 14.875 40.5 14.875" stroke="#3483FA" stroke-miterlimit="10"/>
</svg>
