<svg width="49" height="49" viewBox="0 0 49 49" fill="none" xmlns="http://www.w3.org/2000/svg">
<path d="M16.5 4.375L24.5 10.375L32.5 4.375" stroke="#3483FA" stroke-miterlimit="10"/>
<path d="M2.5 26.1751L10.7 20.3751L7.5 10.9751" stroke="#3483FA" stroke-miterlimit="10"/>
<path d="M18.9 46.1749L16 36.575L6 36.775" stroke="#3483FA" stroke-miterlimit="10"/>
<path d="M43 36.775L33 36.575L30.1 46.1749" stroke="#3483FA" stroke-miterlimit="10"/>
<path d="M41.5 10.9751L38.3 20.3751L46.5 26.1751" stroke="#3483FA" stroke-miterlimit="10"/>
<path d="M28.5 30.875H20.5L16.5 22.875L24.5 16.875L32.5 22.875L28.5 30.875Z" stroke="#3483FA" stroke-miterlimit="10" stroke-linecap="square"/>
<path d="M24.5 46.875C36.6503 46.875 46.5 37.0253 46.5 24.875C46.5 12.7247 36.6503 2.875 24.5 2.875C12.3497 2.875 2.5 12.7247 2.5 24.875C2.5 37.0253 12.3497 46.875 24.5 46.875Z" stroke="#3483FA" stroke-miterlimit="10" stroke-linecap="square"/>
</svg>
