<svg width="49" height="49" viewBox="0 0 49 49" fill="none" xmlns="http://www.w3.org/2000/svg">
<path d="M7.52023 24.0386C14.5098 27.2385 19.6637 33.7535 21.1032 41.5356" stroke="#3483FA" stroke-miterlimit="10"/>
<path d="M41.4798 24.0386C34.4902 27.2385 29.3363 33.7535 27.8968 41.5356" stroke="#3483FA" stroke-miterlimit="10"/>
<path d="M8.58936 18.875C8.58936 18.875 16.563 17.875 24.5003 17.875C32.4375 17.875 40.4108 18.875 40.4108 18.875" stroke="#3483FA" stroke-miterlimit="10"/>
<path d="M24.5 46.875C36.6503 46.875 46.5 37.0253 46.5 24.875C46.5 12.7247 36.6503 2.875 24.5 2.875C12.3497 2.875 2.5 12.7247 2.5 24.875C2.5 37.0253 12.3497 46.875 24.5 46.875Z" stroke="#3483FA" stroke-miterlimit="10" stroke-linecap="square"/>
<path d="M24.5 41.875C33.8888 41.875 41.5 34.2638 41.5 24.875C41.5 15.4862 33.8888 7.875 24.5 7.875C15.1112 7.875 7.5 15.4862 7.5 24.875C7.5 34.2638 15.1112 41.875 24.5 41.875Z" stroke="#3483FA" stroke-miterlimit="10" stroke-linecap="square"/>
<path d="M24.5 30.875C26.7091 30.875 28.5 29.0841 28.5 26.875C28.5 24.6659 26.7091 22.875 24.5 22.875C22.2909 22.875 20.5 24.6659 20.5 26.875C20.5 29.0841 22.2909 30.875 24.5 30.875Z" stroke="#3483FA" stroke-miterlimit="10" stroke-linecap="square"/>
</svg>
