<svg width="49" height="49" viewBox="0 0 49 49" fill="none" xmlns="http://www.w3.org/2000/svg">
<path d="M24.5 32.875C18.977 32.875 14.5 28.398 14.5 22.875V12.875C14.5 7.352 18.977 2.875 24.5 2.875C30.023 2.875 34.5 7.352 34.5 12.875V22.875C34.5 28.398 30.023 32.875 24.5 32.875Z" stroke="#3483FA" stroke-miterlimit="10" stroke-linecap="square"/>
<path d="M14.5 46.875H34.5" stroke="#3483FA" stroke-miterlimit="10" stroke-linecap="square"/>
<path d="M24.5 38.875V46.875" stroke="#3483FA" stroke-miterlimit="10" stroke-linecap="square"/>
<path d="M40.5 22.875C40.5 31.712 33.337 38.875 24.5 38.875C15.663 38.875 8.5 31.712 8.5 22.875" stroke="#3483FA" stroke-miterlimit="10" stroke-linecap="square"/>
<path d="M14.5 14.875H19.5" stroke="#3483FA" stroke-miterlimit="10" stroke-linecap="square"/>
<path d="M14.5 21.875H19.5" stroke="#3483FA" stroke-miterlimit="10" stroke-linecap="square"/>
<path d="M29.5 14.875H34.5" stroke="#3483FA" stroke-miterlimit="10" stroke-linecap="square"/>
<path d="M29.5 21.875H34.5" stroke="#3483FA" stroke-miterlimit="10" stroke-linecap="square"/>
</svg>
