<svg width="49" height="49" viewBox="0 0 49 49" fill="none" xmlns="http://www.w3.org/2000/svg">
<path d="M39 30.875C39.8284 30.875 40.5 30.2034 40.5 29.375C40.5 28.5466 39.8284 27.875 39 27.875C38.1716 27.875 37.5 28.5466 37.5 29.375C37.5 30.2034 38.1716 30.875 39 30.875Z" fill="#3483FA"/>
<path d="M35 34.875C35.8284 34.875 36.5 34.2034 36.5 33.375C36.5 32.5466 35.8284 31.875 35 31.875C34.1716 31.875 33.5 32.5466 33.5 33.375C33.5 34.2034 34.1716 34.875 35 34.875Z" fill="#3483FA"/>
<path d="M36.5 20.875H12.5C6.977 20.875 2.5 25.352 2.5 30.875C2.5 36.398 6.977 40.875 12.5 40.875C16.598 40.875 20.111 38.404 21.656 34.875H27.344C28.888 38.404 32.401 40.875 36.5 40.875C42.023 40.875 46.5 36.398 46.5 30.875C46.5 25.352 42.023 20.875 36.5 20.875Z" stroke="#3483FA" stroke-miterlimit="10" stroke-linecap="square"/>
<path d="M12.5 26.875V34.875" stroke="#3483FA" stroke-miterlimit="10" stroke-linecap="square"/>
<path d="M8.5 30.875H16.5" stroke="#3483FA" stroke-miterlimit="10" stroke-linecap="square"/>
<path d="M24.5 14.875V2.875" stroke="#3483FA" stroke-miterlimit="10" stroke-linecap="square"/>
</svg>
