<svg width="49" height="49" viewBox="0 0 49 49" fill="none" xmlns="http://www.w3.org/2000/svg">
<path d="M46.5 2.875H2.5V46.875H46.5V2.875Z" stroke="#3483FA" stroke-miterlimit="10" stroke-linecap="square"/>
<path d="M39.5 18.875H9.5V39.875H39.5V18.875Z" stroke="#3483FA" stroke-miterlimit="10" stroke-linecap="square"/>
<path d="M30.5 26.875V28.875H18.5V26.875" stroke="#3483FA" stroke-miterlimit="10" stroke-linecap="square"/>
<path d="M24.5 12.875C25.6046 12.875 26.5 11.9796 26.5 10.875C26.5 9.77043 25.6046 8.875 24.5 8.875C23.3954 8.875 22.5 9.77043 22.5 10.875C22.5 11.9796 23.3954 12.875 24.5 12.875Z" stroke="#3483FA" stroke-miterlimit="10" stroke-linecap="square"/>
<path d="M11.5 12.875C12.6046 12.875 13.5 11.9796 13.5 10.875C13.5 9.77043 12.6046 8.875 11.5 8.875C10.3954 8.875 9.5 9.77043 9.5 10.875C9.5 11.9796 10.3954 12.875 11.5 12.875Z" stroke="#3483FA" stroke-miterlimit="10" stroke-linecap="square"/>
<path d="M37.5 12.875C38.6046 12.875 39.5 11.9796 39.5 10.875C39.5 9.77043 38.6046 8.875 37.5 8.875C36.3954 8.875 35.5 9.77043 35.5 10.875C35.5 11.9796 36.3954 12.875 37.5 12.875Z" stroke="#3483FA" stroke-miterlimit="10" stroke-linecap="square"/>
</svg>
