<svg width="49" height="49" viewBox="0 0 49 49" fill="none" xmlns="http://www.w3.org/2000/svg">
<path d="M46 10.4751L40.1 16.3751L33 9.27509L38.9 3.37509C37.5 2.97509 36.1 2.77509 34.5 2.87509C28.9 3.37509 24.4 8.37509 24.5 13.9751C24.5 15.0751 24.7 16.1751 25 17.1751L5.80001 34.1751C2.90001 36.6751 2.80001 41.1751 5.50001 43.8751C8.20001 46.5751 12.6 46.4751 15.2 43.5751L32.2 24.3751C33.9 24.8751 35.8 25.0751 37.8 24.6751C41.8 23.8751 45.1 20.8751 46.2 16.9751C46.7 14.6751 46.6 12.4751 46 10.4751Z" stroke="#3483FA" stroke-miterlimit="10" stroke-linecap="square"/>
</svg>
