<svg width="62" height="34" viewBox="0 0 62 34" fill="none" xmlns="http://www.w3.org/2000/svg">
<path d="M27.958 22.8291L28.0318 22.8381C28.5772 22.9128 29.1127 23.0118 29.5231 23.1945C29.9047 23.3628 30.1261 23.5761 30.3304 23.9541C30.6391 24.5283 30.6598 25.3338 30.3808 25.9431C30.1711 26.3949 29.7121 26.7756 29.2936 26.9781C28.8589 27.1887 28.4305 27.2886 27.9391 27.3444C27.0787 27.4389 26.1508 27.2607 25.3777 26.8863C24.9196 26.6631 24.3616 26.2779 24.0799 25.7829C23.975 25.6017 23.924 25.3943 23.9331 25.1851C23.9422 24.9758 24.0109 24.7736 24.1312 24.6021C24.5335 24.0522 25.3939 23.9307 26.0428 23.9541C26.5378 23.973 27.4279 24.1251 27.8968 24.2925C28.0273 24.3402 28.5061 24.5265 28.5898 24.612C28.6492 24.6714 28.687 24.7587 28.6618 24.8388C28.5538 25.1673 27.7564 25.3401 27.5269 25.3743C26.9104 25.4679 26.5909 25.2348 25.8898 24.9585C25.7029 24.8812 25.5069 24.8276 25.3066 24.7992C24.9889 24.7686 24.6046 24.8577 24.5434 25.2051C24.5137 25.3851 24.7234 25.5525 24.8836 25.6218C25.2589 25.7838 25.5649 25.8414 25.9348 25.8468C27.0274 25.8648 28.2559 25.6848 29.1496 25.0503C29.272 24.9639 29.3926 24.8352 29.3926 24.675C29.3971 24.3492 28.8274 24.1503 28.8274 24.1503C28.2244 23.8992 27.112 23.7768 26.5396 23.7291C25.9375 23.6778 24.9916 23.5986 24.7648 23.5653C24.5308 23.532 24.277 23.4843 24.0745 23.3943C23.8711 23.3016 23.6722 23.0973 23.6128 22.8687C23.5075 22.4583 23.6416 21.9552 23.8693 21.6276C24.4669 20.7699 25.8646 20.4432 26.9104 20.3136C27.922 20.1876 29.5564 20.1894 30.5509 20.7168C30.7039 20.7987 30.7822 20.8761 30.7489 21.039C30.685 21.3477 30.4537 21.5457 30.1729 21.633C29.8795 21.7257 29.2711 21.7635 29.0029 21.7797C27.805 21.8472 26.3569 21.8121 25.2166 22.1226C25.1275 22.1487 24.9736 22.1901 24.9232 22.2468C24.7432 22.4403 25.2544 22.4961 25.3642 22.5186C25.3957 22.5258 25.402 22.5276 25.4362 22.5303L27.958 22.8291ZM20.8327 17.4885C20.8327 17.4885 21.028 17.196 21.1909 16.9746C21.4879 16.5714 22.0252 16.0116 22.4311 15.6642C22.5553 15.5589 22.7011 15.4392 22.7011 15.4392C22.7011 15.4392 22.4725 15.4626 22.3429 15.4887C22.036 15.5481 21.5851 15.8487 21.3592 16.0413C20.9884 16.3599 20.5789 16.8765 20.7634 17.3355C20.7904 17.4003 20.8327 17.4885 20.8327 17.4885ZM22.8982 18.0402C23.4776 18.0001 24.0408 17.8317 24.547 17.547C25.0492 17.2653 25.7872 16.719 25.7107 16.0737C25.6997 15.9776 25.6631 15.8863 25.6046 15.8092C25.5462 15.7321 25.4682 15.6721 25.3786 15.6354C25.1536 15.5382 25.0384 15.5544 24.7522 15.6381C24.5452 15.7002 24.4507 15.7362 24.2545 15.8487C23.6785 16.1826 22.8622 16.899 22.4185 17.4696C22.3168 17.6046 22.2124 17.7549 22.1314 17.8593C22.0801 17.9223 22.0414 17.9817 22.0459 17.997C22.063 18.0627 22.6687 18.0564 22.8982 18.0402ZM21.4024 19.1382C21.3421 19.2012 21.2782 19.356 21.2116 19.4685C21.1733 19.532 21.1246 19.5886 21.0676 19.6359C20.9146 19.7484 20.785 19.7547 20.6374 19.6242C20.5352 19.5293 20.4529 19.4148 20.3954 19.2876C20.3379 19.1604 20.3064 19.0231 20.3026 18.8835C20.299 18.7629 20.3188 18.6306 20.2972 18.5289C20.2594 18.3579 20.0884 18.1824 19.9957 18.0186C19.8788 17.7861 19.8085 17.533 19.7887 17.2734C19.7527 16.5984 20.1082 15.9756 20.5708 15.4842C21.0624 14.9722 21.6543 14.5672 22.3096 14.2944C22.936 14.0307 23.8549 13.8507 24.5434 14.0883C24.7684 14.1648 25.0798 14.3565 25.2364 14.5554C25.2706 14.5968 25.2976 14.6427 25.3318 14.6634C25.3624 14.6832 25.4425 14.6904 25.5064 14.7021C25.7251 14.7408 26.0419 14.9064 26.1715 15.0171C26.4307 15.2403 26.5729 15.4554 26.6386 15.765C26.77 16.3905 26.4109 17.0754 25.9996 17.4921C25.2985 18.2094 24.6064 18.7161 23.7082 19.0662C23.314 19.2192 22.7002 19.3632 22.2529 19.3236C22.1143 19.3119 21.9712 19.275 21.8362 19.266C21.7179 19.2472 21.6016 19.2174 21.4888 19.1769C21.4546 19.1517 21.4105 19.1292 21.4024 19.1382ZM22.2043 20.5224C22.2313 20.5278 22.2745 20.5404 22.3105 20.553C22.6255 20.6736 22.7542 20.9643 22.8325 21.2838C23.0125 22.0263 23.0881 23.6697 23.1178 24.3123C23.1403 24.7947 23.152 25.2699 23.1718 25.747C23.1898 26.1519 23.2213 26.6883 23.1376 27.0672C23.1038 27.2196 23.0138 27.3536 22.8856 27.4425C22.7362 27.5379 22.396 27.546 22.2097 27.5055C21.7498 27.411 21.5986 27.115 21.5329 26.6595C21.3763 25.5723 21.4519 23.4375 21.5446 22.5375C21.5743 22.2405 21.6868 21.2883 21.8425 20.8887C21.8947 20.7564 22.0081 20.4837 22.2043 20.5224ZM8.19041 22.3314C8.19041 22.3314 7.50461 22.38 7.03211 22.4322C6.43181 22.497 5.30411 22.6923 4.65251 22.9245C4.45811 22.9947 4.06121 23.1603 4.02611 23.3619C3.99011 23.5689 4.11881 23.7327 4.26281 23.9019C4.34561 23.9991 4.81541 24.4509 4.94771 24.5616C5.50121 25.0224 6.62171 25.7343 7.44701 26.0799C7.73051 26.1969 8.19941 26.3652 8.19941 26.3652C8.19941 26.3652 8.16521 25.0296 8.17061 23.7129C8.17601 23.019 8.19041 22.3314 8.19041 22.3314ZM20.7616 22.8624C20.8012 23.2224 20.7094 23.9001 20.6932 23.9892C20.6635 24.1962 20.5078 24.6714 20.4826 24.729C20.3689 24.9894 20.2421 25.2438 20.1028 25.4913C19.8778 25.8963 19.3432 26.538 19.0264 26.8116C17.8465 27.8313 16.0186 28.4136 14.4517 28.6044C13.3154 28.7389 12.1655 28.7055 11.0389 28.5054C10.7161 28.4434 10.3945 28.3756 10.0741 28.302C10.0741 28.302 10.0768 28.5324 10.057 28.6953C10.048 28.7691 9.99221 28.9645 9.96161 29.0284C9.87971 29.1966 9.74561 29.2848 9.54851 29.3217C9.31361 29.3649 9.06251 29.3802 8.84381 29.2875C8.48651 29.1372 8.35781 28.8015 8.29481 28.4145C8.24441 28.1058 8.19221 27.5685 8.19221 27.5685C8.19221 27.5685 7.92401 27.4407 7.70081 27.3291C7.03183 26.9957 6.39338 26.6042 5.79281 26.1591C5.4559 25.8926 5.12667 25.6165 4.80551 25.3311C4.38611 24.9333 4.00811 24.5364 3.72011 24.0261C3.49601 23.6301 3.43211 23.2755 3.60131 22.8552C3.83531 22.2675 4.67861 21.8256 5.25461 21.5727C5.67761 21.3864 6.99341 20.9562 7.53881 20.8779C7.79711 20.8401 8.19761 20.7681 8.22281 20.7537C8.23181 20.7473 8.23998 20.7397 8.24711 20.7312C8.25971 20.7132 8.28041 20.1318 8.27591 19.9194C8.27141 19.7097 8.43071 18.3354 8.48291 18.0465C8.50991 17.889 8.62781 17.2851 8.75021 17.1249C8.82941 17.0178 8.96981 17.0259 9.08501 17.097C9.71141 17.4858 9.90131 18.8376 9.94811 19.5261C9.97601 19.9455 9.98951 20.5755 9.98951 20.5755C9.98951 20.5755 10.7086 20.5539 11.1505 20.5665C11.5807 20.5764 12.0541 20.6439 12.5005 20.716C13.072 20.8068 14.1853 21.0507 14.8234 21.3738C15.349 21.6411 15.8413 22.0893 16.0006 22.5645C16.1491 23.0001 16.1266 23.3025 15.9007 23.6949C15.6469 24.1386 15.1663 24.4689 14.6803 24.4959C14.5363 24.5049 13.9909 24.433 13.8226 24.3033C13.7569 24.2512 13.7596 24.1584 13.8073 24.0954C13.8253 24.0729 14.0809 23.9379 14.2303 23.8587C14.3059 23.8173 14.368 23.7741 14.4265 23.7201C14.5525 23.6103 14.6641 23.4888 14.6515 23.3475C14.6344 23.163 14.4391 23.0487 14.2537 22.9767C13.3825 22.6302 11.641 22.3422 10.8004 22.2927C10.471 22.2738 10.003 22.2567 10.003 22.2567L10.102 26.9016C10.102 26.9016 10.489 26.9754 10.795 27.0249C10.9687 27.0519 11.7112 27.1185 11.9083 27.1239C13.4086 27.1626 15.0853 27.0294 16.4614 26.3778C17.0662 26.0925 17.6206 25.7388 18.0409 25.26C18.5944 24.6255 18.8833 23.757 18.8077 22.8498C18.724 21.858 18.0265 20.6826 17.4694 19.9671C15.9988 18.0744 13.4761 16.5183 11.2576 15.6057C8.99141 14.6742 6.75311 14.1387 4.35011 14.0496C3.72911 14.0262 2.37911 14.0586 1.69601 14.2476C1.59881 14.2746 1.49981 14.3079 1.40891 14.3286C1.33279 14.3476 1.25997 14.3779 1.19291 14.4186C1.18126 14.4286 1.17015 14.4391 1.15961 14.4501C1.15961 14.4501 1.20191 14.4735 1.24061 14.4906C1.31351 14.5221 1.61861 14.541 1.77611 14.5707C1.91651 14.5968 2.06411 14.6715 2.12171 14.775C2.17751 14.8731 2.18471 14.9505 2.11721 15.0324C1.96331 15.2214 1.38101 15.189 1.12361 15.1494C0.857209 15.1062 0.525109 15.0243 0.464809 14.793C0.393709 14.5203 0.523309 14.2521 0.663709 14.0037C0.946309 13.5087 1.34951 13.2504 1.94081 13.0884C2.82106 12.8532 3.72364 12.7115 4.63361 12.6654C6.42911 12.5979 8.12741 12.912 9.86621 13.4403C10.8607 13.7409 12.1639 14.2458 13.1179 14.7057C13.9305 15.1082 14.7212 15.5534 15.4867 16.0395C15.6775 16.1655 16.7962 16.9863 16.9699 17.1312C17.3326 17.4282 17.806 17.853 18.1489 18.1932C18.8131 18.852 19.6384 19.86 20.0398 20.661C20.1361 20.8536 20.2108 21.0417 20.3368 21.264C20.3782 21.3396 20.5627 21.795 20.5933 21.9273C20.623 22.0578 20.668 22.2486 20.6743 22.2558C20.6833 22.3215 20.7679 22.7112 20.7616 22.8624ZM43.3237 21.8364C42.4831 22.0299 40.2727 22.137 40.2727 22.137L39.9937 23.01C39.9937 23.01 41.098 22.9155 41.9017 22.9992C41.9017 22.9992 42.1627 22.9695 42.1924 23.2944C42.2023 23.5986 42.1672 23.9244 42.1672 23.9244C42.1672 23.9244 42.1492 24.1224 41.8702 24.1719C41.5687 24.2224 39.4897 24.3024 39.4897 24.3024L39.1531 25.4409C39.1531 25.4409 39.028 25.7037 39.3079 25.629C39.5689 25.5588 41.7451 25.1511 42.0286 25.2097C42.3328 25.2852 42.6676 25.6893 42.5713 26.0592C42.4543 26.5182 40.2826 27.9024 38.9596 27.8061C38.9596 27.8061 38.2639 27.8511 37.6762 26.9133C37.1299 26.0178 37.8832 24.3258 37.8832 24.3258C37.8832 24.3258 37.5376 23.5356 37.7887 23.2674C37.7887 23.2674 37.9372 23.1324 38.3737 23.1018L38.9056 22.0002C38.9056 22.0002 38.299 22.0416 37.9381 21.5952C37.6024 21.1722 37.5745 20.9778 37.8319 20.8608C38.1082 20.724 40.6336 20.2632 42.3724 20.3208C42.3724 20.3208 42.9754 20.2632 43.5001 21.3108C43.501 21.3108 43.7548 21.7347 43.3237 21.8364ZM36.7861 26.0727C36.5638 26.5965 35.9752 27.1563 35.2435 26.8089C34.5217 26.4597 33.3715 24.1071 33.3715 24.1071C33.3715 24.1071 32.935 23.2305 32.8513 23.253C32.8513 23.253 32.7577 23.082 32.7001 24.0405C32.6398 24.9945 32.7109 26.8575 32.3311 27.1491C31.9702 27.4434 31.5328 27.3264 31.3069 26.9835C31.0999 26.6451 31.0153 25.8423 31.1269 24.4311C31.2601 23.0163 31.5877 21.5124 32.0071 21.0444C32.4265 20.5791 32.7631 20.9166 32.8936 21.039C32.8936 21.039 33.4543 21.5475 34.3786 23.0388L34.5415 23.3151C34.5415 23.3151 35.3812 24.7245 35.4694 24.7209C35.4694 24.7209 35.5387 24.7857 35.599 24.7389C35.6872 24.7137 35.6512 24.2619 35.6512 24.2619C35.6512 24.2619 35.4775 22.7265 34.7116 20.1264C34.7116 20.1264 34.5946 19.8024 34.6738 19.4991C34.7521 19.1913 35.0608 19.3362 35.0608 19.3362C35.0608 19.3362 36.2488 19.9338 36.8248 21.867C37.3963 23.7993 37.012 25.5453 36.7861 26.0727ZM49.5688 24.9144C49.0288 25.8576 47.5015 27.8331 45.4738 27.3669C44.8033 28.9914 44.2408 30.6348 43.9195 33.0936C43.9195 33.0936 43.8493 33.5715 43.4515 33.4059C43.0582 33.2673 42.4093 32.6139 42.2788 31.7085C42.1384 30.5205 42.6676 28.509 43.7494 26.205C43.4344 25.692 43.2184 24.9594 43.402 23.9154C43.402 23.9154 43.6747 21.9777 45.6205 20.2308C45.6205 20.2308 45.8545 20.0283 45.9886 20.0913C46.1371 20.1543 46.0678 20.7843 45.9499 21.0903C45.8275 21.3963 44.9599 22.8966 44.9599 22.8966C44.9599 22.8966 44.4199 23.9091 44.572 24.7092C45.5926 23.1405 47.9128 19.9752 49.351 20.9724C49.8352 21.318 50.0575 22.0704 50.0575 22.8804C50.0575 23.5914 49.8865 24.3474 49.5688 24.9144ZM49.1494 22.4295C49.1494 22.4295 49.0693 21.8058 48.4591 22.4925C47.9344 23.0721 46.9876 24.1593 46.2271 25.6353C47.0254 25.5453 47.7967 25.1115 48.0307 24.891C48.4087 24.5545 49.2907 23.6427 49.1494 22.4295ZM60.7423 22.2864H57.0253C56.9517 21.0236 56.7957 19.7669 56.5582 18.5244C56.5462 18.4611 56.5125 18.404 56.4629 18.3629C56.4133 18.3218 56.3508 18.2994 56.2864 18.2994H55.4305C55.3933 18.2997 55.3566 18.3082 55.323 18.3242C55.2894 18.3402 55.2597 18.3634 55.2361 18.3922C55.2125 18.421 55.1955 18.4546 55.1863 18.4907C55.1771 18.5267 55.176 18.5644 55.183 18.6009C55.426 19.8258 55.579 21.0336 55.6555 22.2882H52.0789C52.0393 22.2881 52.0001 22.2958 51.9635 22.3109C51.9268 22.3259 51.8935 22.348 51.8655 22.3759C51.8374 22.4038 51.8151 22.437 51.7998 22.4735C51.7845 22.5101 51.7766 22.5493 51.7765 22.5888V23.361C51.7765 23.5284 51.9115 23.6634 52.0789 23.6634H55.7059C55.7086 23.8551 55.7104 24.0261 55.7104 24.1854C55.7104 25.2996 55.6627 26.2158 55.5493 27.2526C55.5449 27.292 55.549 27.3318 55.5615 27.3694C55.5739 27.407 55.5943 27.4415 55.6213 27.4704C55.6474 27.4997 55.6792 27.5231 55.7149 27.5392C55.7505 27.5553 55.7892 27.5638 55.8283 27.564H56.623C56.7778 27.564 56.9056 27.447 56.9218 27.2931C57.0298 26.2491 57.0766 25.3203 57.0766 24.1854C57.0766 24.0252 57.0748 23.8533 57.073 23.6634H60.7396C60.9052 23.6634 61.042 23.5284 61.042 23.3619V22.5888C61.0426 22.5492 61.0353 22.5098 61.0205 22.473C61.0057 22.4363 60.9836 22.4028 60.9557 22.3746C60.9278 22.3465 60.8946 22.3242 60.8579 22.309C60.8213 22.2939 60.782 22.2862 60.7423 22.2864Z" fill="#01147B"/>
<path d="M56.056 16.4823C54.1658 11.826 50.9444 7.83051 46.795 4.99565C42.5412 2.07603 37.5004 0.518572 32.341 0.529846C28.1235 0.525221 23.9704 1.56498 20.2525 3.55629C16.5347 5.54761 13.3677 8.42852 11.0344 11.9418C11.0085 11.98 10.9918 12.0238 10.9857 12.0695C10.9796 12.1153 10.9843 12.1619 10.9993 12.2055C11.0308 12.2955 11.0992 12.3639 11.1883 12.3945L11.8543 12.6186C11.9315 12.6447 12.0151 12.6447 12.0923 12.6187C12.1695 12.5927 12.2361 12.5421 12.2818 12.4746C14.4744 9.25904 17.4021 6.61248 20.8219 4.75444C24.3612 2.84475 28.3194 1.84428 32.341 1.84295C37.1983 1.84295 41.8846 3.27394 45.895 5.98475C49.7951 8.61373 52.8475 12.3192 54.6808 16.6506C54.7348 16.7802 54.8617 16.8639 55.0021 16.8639H55.7977C55.8431 16.8638 55.8878 16.8524 55.9279 16.8309C55.9679 16.8094 56.002 16.7784 56.0272 16.7406C56.053 16.7033 56.0691 16.6602 56.0741 16.6151C56.0792 16.57 56.0729 16.5244 56.056 16.4823Z" fill="url(#paint0_radial_0_1)"/>
<defs>
<radialGradient id="paint0_radial_0_1" cx="0" cy="0" r="1" gradientUnits="userSpaceOnUse" gradientTransform="translate(56.2 16.6875) rotate(180) scale(45 45)">
<stop stop-color="#01147B"/>
<stop offset="0.025" stop-color="#011098"/>
<stop offset="0.064" stop-color="#010ABD"/>
<stop offset="0.103" stop-color="#0006DA"/>
<stop offset="0.142" stop-color="#0003EE"/>
<stop offset="0.179" stop-color="#0001FB"/>
<stop offset="0.216" stop-color="#0000FF"/>
<stop offset="1" stop-color="#00FFFF" stop-opacity="0"/>
</radialGradient>
</defs>
</svg>
