<svg width="52" height="56" viewBox="0 0 52 56" fill="none" xmlns="http://www.w3.org/2000/svg">
<g clip-path="url(#clip0_1_684)">
<path d="M23.3787 34.3789L17.7929 28.7931C17.4024 28.4026 17.4024 27.7694 17.7929 27.3789L19.3787 25.7931C19.7692 25.4026 20.4024 25.4026 20.7929 25.7931L24.0858 29.086L33.3787 19.7931C33.7692 19.4026 34.4024 19.4026 34.7929 19.7931L36.3787 21.3789C36.7692 21.7694 36.7692 22.4026 36.3787 22.7931L24.7929 34.3789C24.4024 34.7695 23.7692 34.7695 23.3787 34.3789Z" fill="#3483FA"/>
<path fill-rule="evenodd" clip-rule="evenodd" d="M26.2087 1.9126C26.2087 1.9126 19.2087 11.9126 2.20867 8.9126C2.20867 8.9126 -3.79133 38.2676 26.2087 54.0906C56.2087 38.2676 50.2087 8.9126 50.2087 8.9126C33.2087 11.9126 26.2087 1.9126 26.2087 1.9126Z" stroke="#474747" stroke-width="1.413" stroke-linecap="round" stroke-linejoin="round"/>
</g>
<defs>
<clipPath id="clip0_1_684">
<rect width="51" height="55" fill="white" transform="translate(0.5 0.5)"/>
</clipPath>
</defs>
</svg>
