<svg width="62" height="18" viewBox="0 0 62 18" fill="none" xmlns="http://www.w3.org/2000/svg">
<path d="M26.2314 6.5509C26.2199 6.58562 26.1976 6.6158 26.1679 6.63713C26.1381 6.65847 26.1024 6.66986 26.0658 6.66969H19.2249L24.7671 10.6414C24.795 10.6619 24.8284 10.6734 24.8629 10.6746C24.8974 10.6757 24.9315 10.6663 24.9606 10.6477C26.4933 9.7072 27.8343 9.0547 30.6846 8.3185C30.6846 8.3185 26.3106 11.5504 23.4477 15.172C23.3843 15.2503 23.3361 15.3397 23.3055 15.4357L22.7097 17.2465L28.2447 13.2793C28.2742 13.2573 28.3101 13.2454 28.3469 13.2454C28.3837 13.2454 28.4195 13.2573 28.449 13.2793L33.984 17.2465L31.8699 10.8259C31.8584 10.7916 31.8583 10.7544 31.8696 10.72C31.881 10.6856 31.9032 10.6558 31.9329 10.6351L37.4679 6.6679H30.6279C30.5913 6.66807 30.5556 6.65667 30.5259 6.63534C30.4961 6.614 30.4739 6.58382 30.4623 6.5491L28.3482 0.129395L26.2314 6.5509Z" fill="url(#paint0_linear_0_1)"/>
<path d="M61.9281 8.02063H57.6144V3.76453H55.3257V8.02063H51.0147V10.213H55.3257V14.4682H57.6144V10.213H61.9281V8.02063ZM43.2963 5.00563C44.415 5.00563 45.1296 5.57893 45.1296 6.52753C45.1296 7.51933 44.415 8.22583 43.2963 8.22583H41.5071V5.00653H43.2954L43.2963 5.00563ZM44.7039 10.4749C46.6254 10.2328 48.2139 8.60023 48.2139 6.52753C48.2139 3.83743 46.3581 2.36053 43.3629 2.36053H38.4669V15.9019H41.508V10.5415L45.1512 15.901H48.6828L44.7039 10.4749ZM20.3418 2.35783H11.2878V5.09293H14.2623V15.9001H17.37V5.09293H20.3436V2.35783H20.3418ZM5.56923 7.32223C4.69803 6.92443 4.36233 6.50593 4.36233 5.95423C4.36233 5.31523 4.92123 4.78423 5.74833 4.80763C6.50793 4.82923 7.06683 5.22613 7.49163 6.17563L10.1061 5.05063C9.39153 3.24163 7.93713 2.18323 5.59083 2.18323C3.10953 2.18323 1.27623 3.79333 1.27623 5.95423C1.27623 7.43203 1.99083 8.64523 3.82413 9.54883L5.65743 10.4533C6.68613 10.9609 7.17753 11.3362 7.17753 12.0859C7.17753 12.8806 6.50613 13.4539 5.65743 13.4539C4.74123 13.4539 3.91503 12.9463 3.53343 11.7997L0.761429 12.5935C1.38783 14.821 3.24363 16.1224 5.65743 16.1224C8.27283 16.1224 10.2852 14.4682 10.2852 12.0859C10.2852 10.2562 9.30153 9.02053 7.31073 8.11603L5.56923 7.32133V7.32223Z" fill="#261E3C"/>
<defs>
<linearGradient id="paint0_linear_0_1" x1="20.0556" y1="18.4174" x2="36.2673" y2="1.9861" gradientUnits="userSpaceOnUse">
<stop stop-color="#FA1660"/>
<stop offset="0.28" stop-color="#FA1660"/>
<stop offset="0.78" stop-color="#FF6E00"/>
<stop offset="1" stop-color="#FF6E00"/>
</linearGradient>
</defs>
</svg>
